<?xml version="1.0" encoding="UTF-8"?>
<svg width="156px" height="30px" viewBox="0 0 156 30" version="1.1" xmlns="http://www.w3.org/2000/svg" xmlns:xlink="http://www.w3.org/1999/xlink">
    <!-- Generator: Sketch 63.1 (92452) - https://sketch.com -->
    <title>编组 5</title>
    <desc>Created with Sketch.</desc>
    <defs>
        <linearGradient x1="47.5125753%" y1="0%" x2="50%" y2="100%" id="linearGradient-1">
            <stop stop-color="#7EA6FA" offset="0%"></stop>
            <stop stop-color="#1538F6" offset="100%"></stop>
        </linearGradient>
        <linearGradient x1="47.4077938%" y1="0%" x2="50%" y2="100%" id="linearGradient-2">
            <stop stop-color="#7EA6FA" offset="0%"></stop>
            <stop stop-color="#1538F6" offset="100%"></stop>
        </linearGradient>
        <linearGradient x1="12.7114402%" y1="32.7803652%" x2="50%" y2="80.7876778%" id="linearGradient-3">
            <stop stop-color="#7EF6FA" offset="0%"></stop>
            <stop stop-color="#22ADED" offset="100%"></stop>
        </linearGradient>
        <linearGradient x1="40.6886149%" y1="0%" x2="50%" y2="100%" id="linearGradient-4">
            <stop stop-color="#7EF6FA" offset="0%"></stop>
            <stop stop-color="#22ADED" offset="100%"></stop>
        </linearGradient>
        <linearGradient x1="40.6886149%" y1="0%" x2="50%" y2="100%" id="linearGradient-5">
            <stop stop-color="#FA7EDD" offset="0%"></stop>
            <stop stop-color="#F231A7" offset="100%"></stop>
        </linearGradient>
        <linearGradient x1="7.33169146%" y1="46.3982071%" x2="90.8262102%" y2="54.4319372%" id="linearGradient-6">
            <stop stop-color="#7EF6FA" offset="0%"></stop>
            <stop stop-color="#22ADED" offset="100%"></stop>
            <stop stop-color="#22ADED" offset="100%"></stop>
        </linearGradient>
        <linearGradient x1="74.1014791%" y1="0%" x2="78.2565217%" y2="78.1977339%" id="linearGradient-7">
            <stop stop-color="#FA7EDD" offset="0%"></stop>
            <stop stop-color="#F231A7" offset="100%"></stop>
        </linearGradient>
        <linearGradient x1="30.7228298%" y1="7.16412768%" x2="50%" y2="100%" id="linearGradient-8">
            <stop stop-color="#FA7EDD" offset="0%"></stop>
            <stop stop-color="#F231A7" offset="100%"></stop>
        </linearGradient>
        <linearGradient x1="14.7748422%" y1="0%" x2="50%" y2="100%" id="linearGradient-9">
            <stop stop-color="#7EA6FA" offset="0%"></stop>
            <stop stop-color="#1538F6" offset="100%"></stop>
        </linearGradient>
        <linearGradient x1="19.1136225%" y1="0%" x2="50%" y2="100%" id="linearGradient-10">
            <stop stop-color="#7EA6FA" offset="0%"></stop>
            <stop stop-color="#1538F6" offset="100%"></stop>
        </linearGradient>
        <linearGradient x1="30.5104934%" y1="42.0180966%" x2="74.6548794%" y2="100%" id="linearGradient-11">
            <stop stop-color="#FA7EDD" offset="0%"></stop>
            <stop stop-color="#F231A7" offset="100%"></stop>
        </linearGradient>
        <linearGradient x1="86.6048101%" y1="21.8044203%" x2="14.2992989%" y2="106.988124%" id="linearGradient-12">
            <stop stop-color="#7EF6FA" offset="0%"></stop>
            <stop stop-color="#22ADED" offset="100%"></stop>
        </linearGradient>
        <linearGradient x1="100%" y1="56.192391%" x2="4.13022767%" y2="48.5207294%" id="linearGradient-13">
            <stop stop-color="#FA7EDD" offset="0%"></stop>
            <stop stop-color="#F231A7" offset="100%"></stop>
        </linearGradient>
        <linearGradient x1="62.6661111%" y1="115.275195%" x2="50%" y2="-4.7447126%" id="linearGradient-14">
            <stop stop-color="#7EF6FA" offset="0%"></stop>
            <stop stop-color="#22ADED" offset="100%"></stop>
        </linearGradient>
    </defs>
    <g id="WEB" stroke="none" stroke-width="1" fill="none" fill-rule="evenodd">
        <g id="Matrix-3.0-主页" transform="translate(-179.000000, -17.000000)">
            <g id="编组-5" transform="translate(179.000000, 17.000000)">
                <rect id="矩形" fill="url(#linearGradient-1)" x="5.41022388e-16" y="7.79072238e-14" width="7.23104634" height="29.948763"></rect>
                <rect id="矩形备份-9" fill="url(#linearGradient-1)" x="66.7978378" y="7.79072238e-14" width="7.23104634" height="29.948763"></rect>
                <rect id="矩形备份-10" fill="url(#linearGradient-1)" x="117.897495" y="7.79072238e-14" width="7.23104634" height="29.948763"></rect>
                <rect id="矩形备份-11" fill="url(#linearGradient-2)" x="87.8729327" y="7.79072238e-14" width="7.38177748" height="29.948763"></rect>
                <polygon id="矩形备份-12" fill="url(#linearGradient-3)" points="95.2547102 17.2158336 104.535779 17.2158336 111.481211 29.948763 95.2547102 29.948763"></polygon>
                <polygon id="矩形备份-8" fill="url(#linearGradient-4)" points="7.23104634 7.79072238e-14 21.221549 29.948763 7.23104634 29.948763"></polygon>
                <polygon id="矩形备份-8" fill="url(#linearGradient-5)" transform="translate(14.226298, 14.974381) scale(-1, 1) translate(-14.226298, -14.974381) " points="7.23104634 7.79072238e-14 21.221549 29.948763 7.23104634 29.948763"></polygon>
                <rect id="矩形备份-7" fill="url(#linearGradient-1)" x="21.221549" y="7.79072238e-14" width="7.23104634" height="29.948763"></rect>
                <rect id="矩形" fill="url(#linearGradient-6)" x="58.6995303" y="7.52021119e-14" width="23.4276614" height="6.28786638"></rect>
                <polygon id="矩形" fill="url(#linearGradient-7)" points="118.840675 7.52021119e-14 125.128541 7.52021119e-14 125.128541 6.28786638"></polygon>
                <path d="M95.2547102,7.79072238e-14 L100.91379,7.79072238e-14 C106.296464,7.3365729e-14 110.659983,4.36351919 110.659983,9.74619289 C110.659983,15.1288666 106.296464,19.4923858 100.91379,19.4923858 L95.2547102,19.4923858 L95.2547102,19.4923858 L95.2547102,7.79072238e-14 Z" id="矩形" fill="url(#linearGradient-8)"></path>
                <polygon id="路径-6" fill="url(#linearGradient-9)" points="32.8115845 29.948763 42.1101924 7.57431343e-14 50.7244871 7.57431343e-14 60.023095 29.948763"></polygon>
                <polygon id="路径-7" fill="url(#linearGradient-10)" points="130.727848 7.57431343e-14 155.202106 7.57431343e-14 147.433954 14.9743815 155.725404 29.948763 130.244803 29.948763 138.496814 14.5315906"></polygon>
                <polygon id="路径-8" fill="url(#linearGradient-11)" points="142.884469 19.120514 138.094277 29.948763 147.87593 29.948763"></polygon>
                <polygon id="路径-8备份" fill="url(#linearGradient-12)" transform="translate(142.985103, 5.414124) rotate(-180.000000) translate(-142.985103, -5.414124) " points="142.884469 2.16408955e-15 138.094277 10.828249 147.87593 10.828249"></polygon>
                <polygon id="矩形" fill="url(#linearGradient-13)" points="41.8730968 22.9507123 57.8504383 22.9507123 60.023095 29.948763 40.1377604 29.948763"></polygon>
                <polygon id="矩形" fill="url(#linearGradient-14)" points="46.126642 5.35374392 46.3368323 5.35374392 49.3558608 17.5103655 43.2372964 17.5103655"></polygon>
            </g>
        </g>
    </g>
</svg>